<svg width="18" height="11" viewBox="0 0 18 11" fill="none" xmlns="http://www.w3.org/2000/svg">
<path d="M0.875 10.25V9.9375C0.875721 9.68908 0.974725 9.45104 1.15038 9.27538C1.32604 9.09972 1.56408 9.00072 1.8125 9H16.1875C16.4359 9.00072 16.674 9.09972 16.8496 9.27538C17.0253 9.45104 17.1243 9.68908 17.125 9.9375V10.25M3.375 3.375V2.75C3.37593 2.41876 3.50792 2.10136 3.74214 1.86714C3.97636 1.63292 4.29376 1.50093 4.625 1.5H7.75C8.08124 1.50093 8.39864 1.63292 8.63286 1.86714C8.86708 2.10136 8.99907 2.41876 9 2.75M9 2.75V3.375M9 2.75C9.00093 2.41876 9.13292 2.10136 9.36714 1.86714C9.60136 1.63292 9.91876 1.50093 10.25 1.5H13.375C13.7062 1.50093 14.0236 1.63292 14.2579 1.86714C14.4921 2.10136 14.6241 2.41876 14.625 2.75V3.375" stroke="#101828" stroke-width="1.4" stroke-linecap="round" stroke-linejoin="round"/>
</svg>
